<svg width="28" height="28" viewBox="0 0 28 28" fill="none" xmlns="http://www.w3.org/2000/svg">
<path d="M15.7795 5.02362C15.8092 4.91257 15.8605 4.80846 15.9305 4.71725C16.0004 4.62603 16.0877 4.54949 16.1872 4.492C16.2868 4.43451 16.3966 4.3972 16.5106 4.38219C16.6246 4.36719 16.7404 4.37479 16.8514 4.40455C18.4735 4.82778 19.9535 5.67576 21.1389 6.86116C22.3243 8.04655 23.1723 9.52652 23.5955 11.1486C23.6252 11.2596 23.6328 11.3755 23.6178 11.4894C23.6028 11.6034 23.5655 11.7133 23.508 11.8128C23.4505 11.9124 23.374 11.9996 23.2828 12.0695C23.1916 12.1395 23.0875 12.1908 22.9764 12.2205C22.9025 12.2399 22.8264 12.2498 22.75 12.25C22.5572 12.25 22.3698 12.1863 22.2169 12.0688C22.064 11.9513 21.9542 11.7867 21.9045 11.6003C21.5594 10.2762 20.8673 9.06799 19.8997 8.10036C18.932 7.13274 17.7239 6.44067 16.3997 6.09549C16.2886 6.06591 16.1843 6.0147 16.093 5.9448C16.0017 5.8749 15.925 5.78768 15.8674 5.68813C15.8098 5.58857 15.7724 5.47864 15.7573 5.36462C15.7422 5.25059 15.7498 5.13472 15.7795 5.02362ZM15.5247 9.59549C17.033 9.99799 18.002 10.9671 18.4045 12.4753C18.4542 12.6617 18.564 12.8263 18.7169 12.9438C18.8698 13.0613 19.0572 13.125 19.25 13.125C19.3264 13.1248 19.4025 13.1149 19.4764 13.0955C19.5875 13.0658 19.6916 13.0145 19.7828 12.9445C19.874 12.8746 19.9505 12.7874 20.008 12.6878C20.0655 12.5883 20.1028 12.4784 20.1178 12.3644C20.1328 12.2505 20.1252 12.1346 20.0955 12.0236C19.5355 9.92799 18.072 8.46455 15.9764 7.90455C15.7522 7.84465 15.5133 7.87628 15.3124 7.99248C15.1115 8.10868 14.965 8.29993 14.9051 8.52416C14.8452 8.7484 14.8768 8.98724 14.993 9.18815C15.1092 9.38907 15.3005 9.53559 15.5247 9.59549ZM24.4869 20.0244C24.2919 21.5065 23.564 22.8669 22.4393 23.8515C21.3145 24.8361 19.8698 25.3777 18.375 25.375C9.69063 25.375 2.62501 18.3094 2.62501 9.62502C2.62233 8.13019 3.16389 6.68548 4.14853 5.56075C5.13317 4.43602 6.49357 3.70817 7.97563 3.51315C8.35041 3.46739 8.72994 3.54406 9.05756 3.73172C9.38518 3.91938 9.64332 4.20797 9.79345 4.5544L12.1034 9.71143V9.72455C12.2184 9.98974 12.2659 10.2793 12.2416 10.5673C12.2174 10.8553 12.1222 11.1328 11.9645 11.375C11.9449 11.4046 11.9241 11.4319 11.9022 11.4592L9.62501 14.1586C10.4442 15.8233 12.1855 17.5492 13.872 18.3706L16.5342 16.1055C16.5604 16.0835 16.5878 16.0631 16.6163 16.0442C16.8583 15.8828 17.1368 15.7843 17.4265 15.7575C17.7162 15.7308 18.008 15.7767 18.2755 15.8911L18.2897 15.8977L23.4424 18.2066C23.7894 18.3562 24.0787 18.6141 24.267 18.9418C24.4552 19.2694 24.5324 19.6492 24.4869 20.0244ZM22.75 19.8056C22.75 19.8056 22.7424 19.8056 22.738 19.8056L17.5974 17.5033L14.9341 19.7685C14.9082 19.7903 14.8812 19.8108 14.8531 19.8297C14.6013 19.9977 14.3102 20.0975 14.0083 20.1194C13.7063 20.1412 13.4039 20.0844 13.1305 19.9544C11.0819 18.9646 9.03985 16.9378 8.04892 14.9111C7.9177 14.6397 7.85882 14.339 7.87798 14.0382C7.89714 13.7373 7.9937 13.4465 8.15829 13.1939C8.17684 13.1643 8.19769 13.1361 8.22064 13.1097L10.5 10.4071L8.20314 5.26643C8.2027 5.26207 8.2027 5.25767 8.20314 5.2533C7.14248 5.39166 6.16863 5.91192 5.46396 6.71665C4.75929 7.52138 4.37214 8.55538 4.37501 9.62502C4.37906 13.3368 5.85536 16.8954 8.47999 19.52C11.1046 22.1447 14.6632 23.621 18.375 23.625C19.444 23.6287 20.4777 23.2429 21.2829 22.5398C22.0881 21.8366 22.6096 20.8643 22.75 19.8046V19.8056Z" fill="white"/>
</svg>
